<?xml version="1.0" encoding="UTF-8"?>
<svg version="1.1" xmlns="http://www.w3.org/2000/svg" width="512" height="512">
<path d="M0 0 C1.01790619 0.00215515 2.03581238 0.0043103 3.08456421 0.00653076 C17.69363523 0.05620146 32.02575853 0.30709809 46.375 3.3125 C47.34985352 3.51117676 48.32470703 3.70985352 49.32910156 3.91455078 C97.7109774 14.03517194 141.69928269 35.9516877 177.375 70.3125 C178.3640332 71.26068604 178.3640332 71.26068604 179.37304688 72.22802734 C188.86130305 81.37247479 197.6012044 90.66984009 205.375 101.3125 C206.23306152 102.46355017 207.09113451 103.61459177 207.94921875 104.765625 C213.98736829 112.95680614 219.34595521 121.47054105 224.375 130.3125 C224.73948242 130.94430176 225.10396484 131.57610352 225.47949219 132.22705078 C247.08534998 169.97532572 256.85198095 212.74189997 256.6875 255.9375 C256.68534485 256.95540619 256.6831897 257.97331238 256.68096924 259.02206421 C256.63129854 273.63113523 256.38040191 287.96325853 253.375 302.3125 C253.07698486 303.77478027 253.07698486 303.77478027 252.77294922 305.26660156 C242.65232806 353.6484774 220.7358123 397.63678269 186.375 433.3125 C185.74287598 433.97185547 185.11075195 434.63121094 184.45947266 435.31054688 C175.31502521 444.79880305 166.01765991 453.5387044 155.375 461.3125 C154.22394983 462.17056152 153.07290823 463.02863451 151.921875 463.88671875 C143.73224019 469.92427396 135.22961724 475.30707302 126.375 480.3125 C125.66778809 480.7146875 124.96057617 481.116875 124.23193359 481.53125 C101.09654164 494.5566741 75.92537591 503.30551461 49.9375 508.625 C49.21860596 508.77235596 48.49971191 508.91971191 47.7590332 509.0715332 C33.08339502 511.86090125 18.55831162 512.66142619 3.64770508 512.62817383 C0.70811513 512.6250221 -2.2304558 512.64854926 -5.16992188 512.67382812 C-18.54306192 512.71848737 -31.43916711 511.51301542 -44.625 509.3125 C-46.33055054 509.03031616 -46.33055054 509.03031616 -48.07055664 508.74243164 C-91.33802759 500.97044532 -132.38793216 480.98345309 -165.625 452.3125 C-166.37007813 451.67828125 -167.11515625 451.0440625 -167.8828125 450.390625 C-181.38779833 438.57948485 -194.05918743 425.82889772 -204.625 411.3125 C-205.48149066 410.16255169 -206.33826433 409.01281411 -207.1953125 407.86328125 C-213.23534209 399.67315742 -218.61867614 391.16870382 -223.625 382.3125 C-224.0271875 381.60528809 -224.429375 380.89807617 -224.84375 380.16943359 C-237.8691741 357.03404164 -246.61801461 331.86287591 -251.9375 305.875 C-252.08485596 305.15610596 -252.23221191 304.43721191 -252.3840332 303.6965332 C-255.35789088 288.05024391 -255.99800362 272.57681954 -255.9375 256.6875 C-255.93534485 255.66959381 -255.9331897 254.65168762 -255.93096924 253.60293579 C-255.88129854 238.99386477 -255.63040191 224.66174147 -252.625 210.3125 C-252.42632324 209.33764648 -252.22764648 208.36279297 -252.02294922 207.35839844 C-241.90232806 158.9765226 -219.9858123 114.98821731 -185.625 79.3125 C-184.99287598 78.65314453 -184.36075195 77.99378906 -183.70947266 77.31445312 C-174.56502521 67.82619695 -165.26765991 59.0862956 -154.625 51.3125 C-153.47394983 50.45443848 -152.32290823 49.59636549 -151.171875 48.73828125 C-142.98224019 42.70072604 -134.47961724 37.31792698 -125.625 32.3125 C-124.91778809 31.9103125 -124.21057617 31.508125 -123.48193359 31.09375 C-100.34654164 18.0683259 -75.17537591 9.31948539 -49.1875 4 C-48.46860596 3.85264404 -47.74971191 3.70528809 -47.0090332 3.5534668 C-31.36274391 0.57960912 -15.88931954 -0.06050362 0 0 Z " fill="#FECB00" transform="translate(255.625,-0.3125)"/>
<path d="M0 0 C3.23962668 1.37795259 4.90469103 2.80779941 6.9609375 5.6484375 C7.78078125 6.76931763 7.78078125 6.76931763 8.6171875 7.9128418 C9.19726562 8.725354 9.77734375 9.53786621 10.375 10.375 C10.98859375 11.22425049 11.6021875 12.07350098 12.234375 12.94848633 C13.52341937 14.73785748 14.80817282 16.53032669 16.08886719 18.32568359 C17.89178453 20.84857023 19.71346334 23.3567857 21.5390625 25.86328125 C49.98900307 65.28877243 49.98900307 65.28877243 53.609375 84.1796875 C55.24700644 88.2593849 55.24700644 88.2593849 64 91 C70.27 84.73 76.54 78.46 83 72 C87.1362796 75.54538252 91.023243 78.89867269 94.83374023 82.72021484 C95.7141246 83.60067474 96.59450897 84.48113464 97.50157166 85.38827515 C98.42788895 86.31975372 99.35420624 87.2512323 100.30859375 88.2109375 C101.28485986 89.18907267 102.26134994 90.16698435 103.23805237 91.14468384 C105.78672577 93.69714399 108.33237958 96.25259448 110.87738037 98.80871582 C113.48346618 101.42509914 116.09244621 104.03859303 118.70117188 106.65234375 C123.80359118 111.76543246 128.90281857 116.88168912 134 122 C127.74442981 129.38561539 127.74442981 129.38561539 124.5703125 132.52734375 C124.003125 133.09130859 123.4359375 133.65527344 122.8515625 134.23632812 C122.28179687 134.79771484 121.71203125 135.35910156 121.125 135.9375 C120.53203125 136.52595703 119.9390625 137.11441406 119.328125 137.72070312 C117.88773534 139.14947674 116.4442033 140.57508132 115 142 C115.23187012 142.52843506 115.46374023 143.05687012 115.70263672 143.60131836 C116.7684319 146.04316644 117.82174035 148.49022021 118.875 150.9375 C119.23980469 151.76830078 119.60460937 152.59910156 119.98046875 153.45507812 C120.51220703 154.69741211 120.51220703 154.69741211 121.0546875 155.96484375 C121.37937012 156.7137085 121.70405273 157.46257324 122.03857422 158.23413086 C123.36644465 162.054203 124.12267275 166.05202737 125 170 C134.24 170 143.48 170 153 170 C153 193.1 153 216.2 153 240 C143.76 240 134.52 240 125 240 C123.515 245.445 123.515 245.445 122 251 C120.48731744 254.36532883 118.89881875 257.60326731 117.16601562 260.85351562 C116.08968346 262.91209764 116.08968346 262.91209764 115 266 C116.19469275 269.43103377 118.35735043 271.59082282 120.9140625 274.109375 C122.05488281 275.24052734 122.05488281 275.24052734 123.21875 276.39453125 C124.0128125 277.17183594 124.806875 277.94914062 125.625 278.75 C126.42679687 279.54277344 127.22859375 280.33554687 128.0546875 281.15234375 C130.03202846 283.10614493 132.01388909 285.05512103 134 287 C126.36689213 296.17911313 117.80494372 304.49520901 109.39550781 312.95458984 C107.37119209 314.99234691 105.35443574 317.03717312 103.34375 319.08837891 C100.90340504 321.57786845 98.45117186 324.05501937 95.98970413 326.52362061 C94.60338068 327.91993116 93.22925252 329.32831552 91.85531616 330.73681641 C91.0140921 331.57519043 90.17286804 332.41356445 89.30615234 333.27734375 C88.56924164 334.02234131 87.83233093 334.76733887 87.0730896 335.53491211 C85 337 85 337 82.85678101 336.83729553 C80.34239191 335.70345867 78.8172687 334.15402481 76.890625 332.18359375 C76.13652344 331.41982422 75.38242187 330.65605469 74.60546875 329.86914062 C73.82816406 329.06669922 73.05085937 328.26425781 72.25 327.4375 C71.45722656 326.63119141 70.66445313 325.82488281 69.84765625 324.99414062 C67.89152954 323.00266222 65.94274281 321.00452279 64 319 C58.34886005 320.78637859 53.03704516 323.14449881 47.6328125 325.5625 C44 327 44 327 36 329 C36 338.24 36 347.48 36 357 C12.9 357 -10.2 357 -34 357 C-34 347.76 -34 338.52 -34 329 C-36.97 328.34 -39.94 327.68 -43 327 C-45.51879883 326.00683594 -45.51879883 326.00683594 -47.45703125 324.984375 C-48.17697266 324.62085938 -48.89691406 324.25734375 -49.63867188 323.8828125 C-51.10966041 323.11625962 -52.57835702 322.34529515 -54.04492188 321.5703125 C-54.75841797 321.21195312 -55.47191406 320.85359375 -56.20703125 320.484375 C-57.15799683 319.98502441 -57.15799683 319.98502441 -58.12817383 319.47558594 C-60.03626919 318.81059436 -60.03626919 318.81059436 -62.00268555 319.67407227 C-64.23998196 321.15931329 -65.91423766 322.77025196 -67.75 324.73046875 C-68.4409375 325.45041016 -69.131875 326.17035156 -69.84375 326.91210938 C-71.28711156 328.43522189 -72.72458502 329.96393485 -74.15625 331.49804688 C-75.19265625 332.5721582 -75.19265625 332.5721582 -76.25 333.66796875 C-76.87390625 334.33078857 -77.4978125 334.9936084 -78.140625 335.67651367 C-80 337 -80 337 -81.81243896 336.86520386 C-84.85756562 335.6608236 -86.5558862 333.80288312 -88.86035156 331.48022461 C-89.32910706 331.0119072 -89.79786255 330.54358978 -90.28082275 330.06108093 C-91.82464325 328.51517453 -93.3575726 326.95892317 -94.890625 325.40234375 C-95.96042394 324.32694816 -97.03088824 323.25221408 -98.10198975 322.17811584 C-100.91655581 319.35210651 -103.72199579 316.51720358 -106.52563477 313.68035889 C-109.38924028 310.78604148 -112.26137861 307.90021924 -115.1328125 305.01367188 C-120.76359817 299.35073117 -126.38477183 293.67836727 -132 288 C-125.74442981 280.61438461 -125.74442981 280.61438461 -122.5703125 277.47265625 C-122.003125 276.90869141 -121.4359375 276.34472656 -120.8515625 275.76367188 C-119.99691406 274.9215918 -119.99691406 274.9215918 -119.125 274.0625 C-118.53203125 273.47404297 -117.9390625 272.88558594 -117.328125 272.27929688 C-115.88773534 270.85052326 -114.4442033 269.42491868 -113 268 C-114.78637859 262.34886005 -117.14449881 257.03704516 -119.5625 251.6328125 C-121 248 -121 248 -123 240 C-132.24 240 -141.48 240 -151 240 C-151 216.9 -151 193.8 -151 170 C-141.76 170 -132.52 170 -123 170 C-122.34 167.03 -121.68 164.06 -121 161 C-120.03857422 158.23413086 -120.03857422 158.23413086 -119.0546875 155.96484375 C-118.73483887 155.21581787 -118.41499023 154.46679199 -118.08544922 153.69506836 C-117.68600098 152.7850708 -117.28655273 151.87507324 -116.875 150.9375 C-114.956875 146.5134375 -114.956875 146.5134375 -113 142 C-119.27 135.73 -125.54 129.46 -132 123 C-128.45461748 118.8637204 -125.10132731 114.976757 -121.27978516 111.16625977 C-119.95909531 109.84568321 -119.95909531 109.84568321 -118.61172485 108.49842834 C-117.68024628 107.57211105 -116.7487677 106.64579376 -115.7890625 105.69140625 C-114.81092733 104.71514014 -113.83301565 103.73865006 -112.85531616 102.76194763 C-110.30285601 100.21327423 -107.74740552 97.66762042 -105.19128418 95.12261963 C-102.57490086 92.51653382 -99.96140697 89.90755379 -97.34765625 87.29882812 C-92.23456754 82.19640882 -87.11831088 77.09718143 -82 72 C-74.61438461 78.25557019 -74.61438461 78.25557019 -71.47265625 81.4296875 C-70.62670898 82.28046875 -70.62670898 82.28046875 -69.76367188 83.1484375 C-68.9215918 84.00308594 -68.9215918 84.00308594 -68.0625 84.875 C-67.47404297 85.46796875 -66.88558594 86.0609375 -66.27929688 86.671875 C-64.85052326 88.11226466 -63.42491868 89.5557967 -62 91 C-58.42494599 90.19256723 -55.91120883 89.32031991 -53 87 C-51.4573227 83.91837168 -50.37041361 80.93750272 -49.296875 77.67700195 C-39.79514004 48.90041014 -18.28142216 23.63719068 0 0 Z " fill="#373C40" transform="translate(255,59)"/>
<path d="M0 0 C3.85677145 1.92838572 5.864423 3.60251324 8.88482666 6.59721375 C9.36193643 7.06767571 9.83904621 7.53813767 10.33061385 8.02285606 C11.92603994 9.59861684 13.51426397 11.18143836 15.10253906 12.7644043 C16.24559563 13.89656408 17.38903795 15.02833451 18.53283691 16.15974426 C21.63687971 19.23329756 24.73417358 22.31356255 27.82935047 25.39604163 C29.76298441 27.32158921 31.69766004 29.2460844 33.63262177 31.17029762 C39.68591822 37.19088519 45.73480064 43.21586081 51.77786088 49.24672288 C58.75487899 56.20947399 65.74647003 63.15714695 72.75092912 70.09228963 C78.16455768 75.45418099 83.56471114 80.82940354 88.95485854 86.21489841 C92.17467816 89.43131665 95.39999678 92.6417246 98.639534 95.83829308 C101.68535368 98.8444143 104.71412945 101.86670992 107.73060608 104.90226555 C108.84037622 106.01330364 109.95615754 107.11837457 111.07828522 108.21693039 C112.60994508 109.7182335 114.11844166 111.23958029 115.62310791 112.76786804 C116.47333652 113.61424174 117.32356514 114.46061544 118.19955826 115.33263683 C120.95576659 119.41597284 120.33035381 122.98614407 119.56030273 127.68041992 C119.35348877 128.52193604 119.1466748 129.36345215 118.93359375 130.23046875 C118.69922607 131.18791992 118.4648584 132.14537109 118.22338867 133.13183594 C117.83437378 134.64438965 117.83437378 134.64438965 117.4375 136.1875 C117.16719971 137.24614258 116.89689941 138.30478516 116.6184082 139.39550781 C105.61376933 181.42295773 84.12676456 219.72035717 54 251 C53.36787598 251.65935547 52.73575195 252.31871094 52.08447266 252.99804688 C42.94002521 262.48630305 33.64265991 271.2262044 23 279 C21.84894983 279.85806152 20.69790823 280.71613451 19.546875 281.57421875 C11.35724019 287.61177396 2.85461724 292.99457302 -6 298 C-6.70721191 298.4021875 -7.41442383 298.804375 -8.14306641 299.21875 C-31.43573886 312.33272437 -56.73600115 321.00830667 -82.875 326.4375 C-84.04131958 326.68367065 -84.04131958 326.68367065 -85.23120117 326.93481445 C-87.48282894 327.36928792 -89.7284663 327.68721737 -92 328 C-92.73363203 328.14061104 -93.46726406 328.28122208 -94.22312737 328.42609406 C-98.48304886 328.90233428 -101.09303617 328.60498214 -104.71008682 326.19226074 C-107.78178211 323.45197853 -110.6514042 320.58702342 -113.50830078 317.62695312 C-114.62091234 316.5115183 -115.73573558 315.39828585 -116.85258484 314.28709412 C-119.86849736 311.27404397 -122.8526399 308.23122442 -125.83192682 305.18201256 C-128.95425985 301.99704995 -132.10504869 298.84049426 -135.25289917 295.68078613 C-141.20502003 289.697618 -147.13119746 283.6894254 -153.04842365 277.67176676 C-159.78805193 270.820258 -166.55619135 263.99721588 -173.32684731 257.17638874 C-187.24980266 243.14898457 -201.13665638 229.08630529 -215 215 C-208.33333333 208.33333333 -201.66666667 201.66666667 -195 195 C-189.43748953 196.73828452 -184.22700707 199.05027314 -178.921875 201.43359375 C-178.24640625 201.73394531 -177.5709375 202.03429687 -176.875 202.34375 C-176.27429688 202.61380859 -175.67359375 202.88386719 -175.0546875 203.16210938 C-172.41876783 204.23702339 -169.70058538 205.09980487 -167 206 C-167 215.24 -167 224.48 -167 234 C-143.9 234 -120.8 234 -97 234 C-97 224.76 -97 215.52 -97 206 C-87.375 202.1875 -87.375 202.1875 -84.37646484 201.00463867 C-83.18077881 200.52861206 -83.18077881 200.52861206 -81.9609375 200.04296875 C-81.10081055 199.70056152 -80.24068359 199.3581543 -79.35449219 199.00537109 C-76.77726011 197.95270499 -76.77726011 197.95270499 -73.6015625 196.11328125 C-71 195 -71 195 -69.07177734 195.69726562 C-66.7595748 197.15117946 -65.11649309 198.73743784 -63.25 200.73046875 C-62.5590625 201.45041016 -61.868125 202.17035156 -61.15625 202.91210938 C-59.71288844 204.43522189 -58.27541498 205.96393485 -56.84375 207.49804688 C-56.1528125 208.21412109 -55.461875 208.93019531 -54.75 209.66796875 C-54.12609375 210.33078857 -53.5021875 210.9936084 -52.859375 211.67651367 C-51.1316396 213.20556209 -51.1316396 213.20556209 -49.18182373 212.85946655 C-46.17326224 211.6743305 -44.50719159 209.86612055 -42.23144531 207.57202148 C-41.77244339 207.11345764 -41.31344147 206.6548938 -40.8405304 206.18243408 C-39.329173 204.66899112 -37.82871211 203.14520986 -36.328125 201.62109375 C-35.2807464 200.56811838 -34.23270231 199.51580457 -33.184021 198.46412659 C-30.42863705 195.69730031 -27.68238176 192.9215829 -24.93792725 190.1439209 C-22.13464618 187.30992589 -19.32283007 184.48442747 -16.51171875 181.65820312 C-10.99942104 176.11375205 -5.49673895 170.55988091 0 165 C-4.56150379 159.59693975 -4.56150379 159.59693975 -9.4296875 154.47265625 C-9.996875 153.90869141 -10.5640625 153.34472656 -11.1484375 152.76367188 C-11.71820313 152.20228516 -12.28796875 151.64089844 -12.875 151.0625 C-13.46796875 150.47404297 -14.0609375 149.88558594 -14.671875 149.27929688 C-16.11226466 147.85052326 -17.5557967 146.42491868 -19 145 C-17.59666641 140.58184928 -15.92063664 136.37081859 -14.0625 132.125 C-11.8713384 127.11502949 -9.92597223 122.13592595 -8 117 C1.24 117 10.48 117 20 117 C20 93.9 20 70.8 20 47 C10.76 47 1.52 47 -8 47 C-11.25 38.0625 -11.25 38.0625 -12.24707031 35.30493164 C-12.52131836 34.55590576 -12.79556641 33.80687988 -13.078125 33.03515625 C-13.48659668 31.91185913 -13.48659668 31.91185913 -13.90332031 30.76586914 C-15.47870365 26.79269064 -17.26412124 22.9057272 -19 19 C-12.73 12.73 -6.46 6.46 0 0 Z " fill="#FE9D21" transform="translate(388,182)"/>
<path d="M0 0 C3.23962668 1.37795259 4.90469103 2.80779941 6.9609375 5.6484375 C7.5075 6.39569092 8.0540625 7.14294434 8.6171875 7.9128418 C9.19726562 8.725354 9.77734375 9.53786621 10.375 10.375 C10.98859375 11.22425049 11.6021875 12.07350098 12.234375 12.94848633 C13.52341937 14.73785748 14.80817282 16.53032669 16.08886719 18.32568359 C17.89178453 20.84857023 19.71346334 23.3567857 21.5390625 25.86328125 C33.91919677 43.0194814 45.44506351 61.15633771 53 81 C53.37898437 81.94488281 53.75796875 82.88976562 54.1484375 83.86328125 C57.52711746 96.30860239 55.43814813 110.84937251 49.3515625 122.02734375 C47.66464482 124.7713474 45.89279741 127.39472102 44 130 C43.56558594 130.60714844 43.13117188 131.21429688 42.68359375 131.83984375 C40.49554077 134.67781346 38.10452855 136.72737099 35.1875 138.75 C34.135625 139.4925 33.08375 140.235 32 141 C32 141.66 32 142.32 32 143 C33.91840514 144.27988719 33.91840514 144.27988719 36.375 145.5625 C46.80479219 151.6403987 54.36167997 160.04251995 61 170 C65.74417578 170.40302464 69.89761076 169.73176503 74.5 168.625 C83.52382283 166.5886079 92.72327597 164.91612365 102 165 C97.96264411 222.54662696 97.96264411 222.54662696 81 239 C72.50200857 245.89967274 64.88298114 248.60213215 54 248 C53.76023437 248.57105469 53.52046875 249.14210938 53.2734375 249.73046875 C47.03317475 260.85191862 32.62023216 267.5436846 20.984375 271.17578125 C19.99953125 271.44777344 19.0146875 271.71976562 18 272 C16.74058594 272.35835938 15.48117187 272.71671875 14.18359375 273.0859375 C-2.89676808 277.27420224 -20.24554322 272.61122203 -35.14892578 264.12792969 C-45.58494122 257.7688699 -53.29708699 249.26141269 -59.375 238.8125 C-59.72135498 238.21800049 -60.06770996 237.62350098 -60.42456055 237.01098633 C-62.27566291 233.70090532 -63.50331451 230.76771424 -64 227 C-64.8765625 226.89816406 -65.753125 226.79632813 -66.65625 226.69140625 C-74.39666096 225.09087735 -81.36507254 219.81009276 -85.734375 213.28125 C-96.49236572 193.89030377 -102.17839048 167.21430907 -102 145 C-92.80195072 145.53052778 -83.87114 146.71449643 -74.8125 148.375 C-73.61947266 148.58382812 -72.42644531 148.79265625 -71.19726562 149.0078125 C-65.03962891 150.11815051 -59.11540126 151.41122892 -53.19018555 153.43603516 C-50.67823126 154.08285428 -48.58435709 154.20261657 -46 154 C-43.45056921 152.37685738 -43.45056921 152.37685738 -41.0625 150.1875 C-37.47968532 147.16165502 -34.31168351 144.81544569 -30 143 C-30 142.34 -30 141.68 -30 141 C-31.27901357 140.01730636 -32.60075261 139.09009012 -33.9375 138.1875 C-44.01464979 130.49077929 -50.90957835 118.50414645 -53 106 C-53.48210817 100.32568231 -53.31278824 94.67884419 -53 89 C-53.99 88.505 -53.99 88.505 -55 88 C-54.34 87.67 -53.68 87.34 -53 87 C-52.07703346 84.67593999 -51.24393076 82.3642958 -50.4375 80 C-39.7334317 50.28836437 -19.11139439 24.71031354 0 0 Z " fill="#49A320" transform="translate(255,59)"/>
<path d="M0 0 C7.38561539 6.25557019 7.38561539 6.25557019 10.52734375 9.4296875 C11.09130859 9.996875 11.65527344 10.5640625 12.23632812 11.1484375 C12.79771484 11.71820313 13.35910156 12.28796875 13.9375 12.875 C14.82018555 13.76445312 14.82018555 13.76445312 15.72070312 14.671875 C17.14947674 16.11226466 18.57508132 17.5557967 20 19 C20.7425 18.67 21.485 18.34 22.25 18 C25 17 25 17 29 17 C29.01417969 18.05316406 29.02835937 19.10632813 29.04296875 20.19140625 C29.48799261 36.48422418 33.33764591 49.4925382 44.5625 61.8125 C47.31899775 64.28628003 50.1274831 66.66190485 53 69 C51.75314694 72.74055919 50.68656164 73.00892705 47.3125 74.875 C44.13393804 76.67138275 41.49771512 78.34112365 38.9375 80.9375 C35.53765841 83.32462282 33.7673188 83.34963744 29.734375 82.64453125 C25.95144861 81.75284146 22.20181405 80.73944917 18.44775391 79.73364258 C5.8674441 76.52765567 -7.17697722 74.95679134 -20 73 C-19.23014481 78.01485832 -18.4483249 83.02766556 -17.65625 88.0390625 C-17.38943158 89.73746439 -17.12566262 91.43634871 -16.86523438 93.13574219 C-12.74792933 123.59062451 -12.74792933 123.59062451 3.6171875 148.03515625 C7.37781846 150.51676503 10.68217787 152.69295076 15.1015625 153.72265625 C19.22725971 155.54085435 20.20081768 158.56156574 21.875 162.5 C29.93533748 179.84779418 43.32608731 191.01895787 61 198 C68.32937199 200.29987894 75.33819315 201.14868813 83 202 C83 229.39 83 256.78 83 285 C71.45 285 59.9 285 48 285 C48 275.76 48 266.52 48 257 C45.03 256.34 42.06 255.68 39 255 C36.48120117 254.00683594 36.48120117 254.00683594 34.54296875 252.984375 C33.82302734 252.62085938 33.10308594 252.25734375 32.36132812 251.8828125 C30.89033959 251.11625962 29.42164298 250.34529515 27.95507812 249.5703125 C27.24158203 249.21195313 26.52808594 248.85359375 25.79296875 248.484375 C25.1589917 248.15147461 24.52501465 247.81857422 23.87182617 247.47558594 C21.96373081 246.81059436 21.96373081 246.81059436 19.99731445 247.67407227 C17.76001804 249.15931329 16.08576234 250.77025196 14.25 252.73046875 C13.5590625 253.45041016 12.868125 254.17035156 12.15625 254.91210938 C10.71288844 256.43522189 9.27541498 257.96393485 7.84375 259.49804688 C6.80734375 260.5721582 6.80734375 260.5721582 5.75 261.66796875 C5.12609375 262.33078857 4.5021875 262.9936084 3.859375 263.67651367 C2 265 2 265 0.18756104 264.86520386 C-2.85756562 263.6608236 -4.5558862 261.80288312 -6.86035156 259.48022461 C-7.32910706 259.0119072 -7.79786255 258.54358978 -8.28082275 258.06108093 C-9.82464325 256.51517453 -11.3575726 254.95892317 -12.890625 253.40234375 C-13.96042394 252.32694816 -15.03088824 251.25221408 -16.10198975 250.17811584 C-18.91655581 247.35210651 -21.72199579 244.51720358 -24.52563477 241.68035889 C-27.38924028 238.78604148 -30.26137861 235.90021924 -33.1328125 233.01367188 C-38.76359817 227.35073117 -44.38477183 221.67836727 -50 216 C-43.74442981 208.61438461 -43.74442981 208.61438461 -40.5703125 205.47265625 C-40.003125 204.90869141 -39.4359375 204.34472656 -38.8515625 203.76367188 C-38.28179687 203.20228516 -37.71203125 202.64089844 -37.125 202.0625 C-36.53203125 201.47404297 -35.9390625 200.88558594 -35.328125 200.27929688 C-33.88773534 198.85052326 -32.4442033 197.42491868 -31 196 C-32.78637859 190.34886005 -35.14449881 185.03704516 -37.5625 179.6328125 C-39 176 -39 176 -41 168 C-50.24 168 -59.48 168 -69 168 C-69 144.9 -69 121.8 -69 98 C-59.76 98 -50.52 98 -41 98 C-40.34 95.03 -39.68 92.06 -39 89 C-38.03857422 86.23413086 -38.03857422 86.23413086 -37.0546875 83.96484375 C-36.73483887 83.21581787 -36.41499023 82.46679199 -36.08544922 81.69506836 C-35.68600098 80.7850708 -35.28655273 79.87507324 -34.875 78.9375 C-32.956875 74.5134375 -32.956875 74.5134375 -31 70 C-37.27 63.73 -43.54 57.46 -50 51 C-46.45461748 46.8637204 -43.10132731 42.976757 -39.27978516 39.16625977 C-37.95909531 37.84568321 -37.95909531 37.84568321 -36.61172485 36.49842834 C-35.68024628 35.57211105 -34.7487677 34.64579376 -33.7890625 33.69140625 C-32.81092733 32.71514014 -31.83301565 31.73865006 -30.85531616 30.76194763 C-28.30285601 28.21327423 -25.74740552 25.66762042 -23.19128418 23.12261963 C-20.57490086 20.51653382 -17.96140697 17.90755379 -15.34765625 15.29882812 C-10.23456754 10.19640882 -5.11831088 5.09718143 0 0 Z " fill="#4B5054" transform="translate(173,131)"/>
<path d="M0 0 C0 60.06 0 120.12 0 182 C-20.47431543 182 -36.28825107 174.12466013 -50.9453125 160.14453125 C-54.77453503 156.1178376 -57.59453886 151.59256111 -60.375 146.8125 C-60.72135498 146.21800049 -61.06770996 145.62350098 -61.42456055 145.01098633 C-63.27566291 141.70090532 -64.50331451 138.76771424 -65 135 C-65.8765625 134.89816406 -66.753125 134.79632813 -67.65625 134.69140625 C-75.39666096 133.09087735 -82.36507254 127.81009276 -86.734375 121.28125 C-97.49236572 101.89030377 -103.17839048 75.21430907 -103 53 C-93.80195072 53.53052778 -84.87114 54.71449643 -75.8125 56.375 C-74.61947266 56.58382812 -73.42644531 56.79265625 -72.19726562 57.0078125 C-66.03962891 58.11815051 -60.11540126 59.41122892 -54.19018555 61.43603516 C-51.67935831 62.08256407 -49.58320175 62.20032234 -47 62 C-44.48421506 60.41144901 -44.48421506 60.41144901 -42.125 58.25 C-34.64506351 52.00375289 -34.64506351 52.00375289 -30 50 C-27.609375 50.78515625 -27.609375 50.78515625 -25 52 C-23.3554838 52.69064468 -21.7096424 53.37814226 -20.0625 54.0625 C-19.24910156 54.40410156 -18.43570313 54.74570313 -17.59765625 55.09765625 C-14.74626592 56.08813921 -11.97739043 56.5345506 -9 57 C-9.00888245 56.37217117 -9.01776489 55.74434235 -9.0269165 55.0974884 C-9.11544455 48.56012073 -9.17575712 42.02292348 -9.21972656 35.48510742 C-9.23983564 33.04558393 -9.26712683 30.6061086 -9.30175781 28.16674805 C-9.35030489 24.65922152 -9.37297632 21.15233257 -9.390625 17.64453125 C-9.41127014 16.55477493 -9.43191528 15.46501862 -9.45318604 14.34223938 C-9.45543071 6.75895361 -9.45543071 6.75895361 -7.10058594 2.8347168 C-4.4154628 0.48944711 -3.60618937 0 0 0 Z " fill="#4CA420" transform="translate(256,151)"/>
<path d="M0 0 C10.76272008 5.20622702 19.86666628 13.77235154 25.35546875 24.3828125 C27.00799684 26.34560755 27.00799684 26.34560755 30.26953125 26.328125 C33.80814771 26.01687497 37.04948865 25.45476582 40.5 24.625 C49.52382283 22.5886079 58.72327597 20.91612365 68 21 C63.96264411 78.54662696 63.96264411 78.54662696 47 95 C38.50200857 101.89967274 30.88298114 104.60213215 20 104 C19.76023437 104.57105469 19.52046875 105.14210938 19.2734375 105.73046875 C13.02551975 116.86556142 -1.54056178 123.69340981 -13.21875 127.2890625 C-16.82912197 128.21193848 -20.28679132 128.71436856 -24 129 C-24.54399005 124.01235373 -24.66197485 120.96990463 -21.76013184 116.71821594 C-20.72433998 115.67470205 -19.66372849 114.65543797 -18.58398438 113.6574707 C-18.00852371 113.09033356 -17.43306305 112.52319641 -16.84016418 111.93887329 C-14.94434009 110.07973617 -13.01940211 108.25395855 -11.09375 106.42578125 C-9.76857643 105.13265705 -8.44581375 103.837058 -7.12536621 102.53910828 C-3.65194503 99.13391257 -0.15501302 95.75406523 3.35015869 92.3815918 C8.96455652 86.9780746 14.55623902 81.55190206 20.1212616 76.09755516 C22.06953576 74.19937292 24.03599608 72.32155882 26.0045166 70.44441223 C27.19845281 69.28185753 28.3916493 68.11854249 29.58398438 66.9543457 C30.13567795 66.43836319 30.68737152 65.92238068 31.25578308 65.39076233 C33.86647548 62.80509406 34.95266681 61.39066273 35.40100098 57.69035339 C35.28581592 55.08743693 35.28581592 55.08743693 34 54 C30.16474087 53.50082409 28.51377701 53.62475674 25.3490448 55.93615723 C24.45937515 56.84216675 23.56970551 57.74817627 22.65307617 58.68164062 C22.15637421 59.17907272 21.65967224 59.67650482 21.1479187 60.18901062 C19.51509686 61.8310859 17.90444008 63.4932401 16.29296875 65.15625 C15.16189664 66.30105706 14.02941389 67.44447196 12.89558411 68.58654785 C9.9186313 71.59204119 6.95970899 74.61467067 4.00463867 77.6416626 C0.40239273 81.32557977 -3.21910939 84.99054743 -6.83944988 88.65666962 C-9.65379033 91.5068485 -12.46449599 94.36031161 -15.2648468 97.22424316 C-15.7785231 97.74786942 -16.2921994 98.27149567 -16.82144165 98.81098938 C-18.21050932 100.22707809 -19.59731484 101.64538478 -20.98396301 103.06384277 C-23 105 -23 105 -24 105 C-24 72 -24 39 -24 5 C-20.37 4.01 -16.74 3.02 -13 2 C-11.741875 1.4225 -10.48375 0.845 -9.1875 0.25 C-5.42742822 -1.22453795 -3.87739703 -0.94393561 0 0 Z " fill="#49A320" transform="translate(289,203)"/>
<path d="M0 0 C0.66 0.33 1.32 0.66 2 1 C1.67 31.03 1.34 61.06 1 92 C-0.98 92.99 -2.96 93.98 -5 95 C-7.17089653 98.25634479 -7.26291012 99.24643282 -7.31884766 103.0222168 C-7.33871735 104.04304855 -7.35858704 105.06388031 -7.37905884 106.11564636 C-7.39638565 107.76576469 -7.39638565 107.76576469 -7.4140625 109.44921875 C-7.43342865 110.5769722 -7.4527948 111.70472565 -7.4727478 112.86665344 C-7.53259307 116.47352503 -7.57894922 120.08042844 -7.625 123.6875 C-7.66317518 126.1308734 -7.70222664 128.57423328 -7.7421875 131.01757812 C-7.8382987 137.01159884 -7.92333178 143.00570079 -8 149 C-9.4348034 148.86171748 -10.86902578 148.71739811 -12.30297852 148.57055664 C-13.5010891 148.45098351 -13.5010891 148.45098351 -14.72340393 148.32899475 C-24.94908231 146.85126466 -34.95151838 138.75987615 -41.4453125 131.125 C-51.23771701 117.93918798 -53.88655934 105.09597741 -53 89 C-53.66 88.67 -54.32 88.34 -55 88 C-54.01 87.505 -54.01 87.505 -53 87 C-52.07703346 84.67593999 -51.24393076 82.3642958 -50.4375 80 C-39.7334317 50.28836437 -19.11139439 24.71031354 0 0 Z " fill="#56C024" transform="translate(255,59)"/>
<path d="M0 0 C22.27562639 1.33616962 57.92196559 3.64236669 74.375 21.25 C79.06817805 27.39874341 82.59669794 34.20282688 83 42 C83.061875 42.90621094 83.12375 43.81242187 83.1875 44.74609375 C83.47706002 51.84936298 82.6404652 57.79772596 79 64 C77.68439442 65.35082846 76.35278992 66.68641141 75 68 C74.56231293 67.54676865 74.12462585 67.09353729 73.67367554 66.62657166 C69.11991459 61.91809633 64.54181336 57.23432748 59.94873047 52.56420898 C58.23726543 50.81751459 56.53213191 49.0645931 54.83349609 47.30541992 C52.39232237 44.77945353 49.92934033 42.27667197 47.4609375 39.77734375 C46.70444916 38.98472641 45.94796082 38.19210907 45.16854858 37.37547302 C43.1815247 35.38699061 41.32848695 33.5750708 39 32 C35.57400621 31.79769128 35.57400621 31.79769128 33 33 C31.79769128 35.57400621 31.79769128 35.57400621 32 39 C34.17813304 42.22001676 36.97377289 44.7851587 39.77734375 47.4609375 C40.57781631 48.25150543 41.37828888 49.04207336 42.20301819 49.8565979 C44.76523587 52.3796095 47.35070216 54.87722006 49.9375 57.375 C51.6780186 59.0804138 53.4169719 60.78742669 55.15429688 62.49609375 C59.41820365 66.68279204 63.70145945 70.84888464 68 75 C62.04546543 81.22346945 54.39773489 83.20626301 45.875 83.4375 C35.67038478 83.0123077 27.67890408 79.79902966 20 73 C4.6488517 56.07261772 -0.29652359 22.04881916 0 0 Z " fill="#56C025" transform="translate(153,204)"/>
<path d="M0 0 C5 1 5 1 7.28006363 3.16900921 C9.3090302 6.5086593 9.5059738 8.40967328 9.51898193 12.29585266 C9.53289474 13.56484909 9.54680756 14.83384552 9.56114197 16.14129639 C9.55642933 17.53991828 9.55133542 18.93853894 9.54589844 20.3371582 C9.55463615 21.81572049 9.56512263 23.29427332 9.57722473 24.77281189 C9.60508153 28.78072772 9.6084895 32.78833496 9.60750484 36.79633355 C9.61063424 40.98711064 9.63625298 45.1777488 9.65948486 49.36845398 C9.70004642 57.3014623 9.72038592 65.23438841 9.73345876 73.16748446 C9.74932829 82.20015042 9.7877437 91.23267648 9.82805204 100.26526129 C9.91045309 118.8434633 9.9645439 137.42165208 10 156 C10.62560822 155.36106812 11.25121643 154.72213623 11.89578247 154.06384277 C17.79472857 148.04466568 23.70801488 142.04003251 29.63784981 136.05127716 C32.68594119 132.97187564 35.72820266 129.88714539 38.7578125 126.78955078 C41.68188861 123.80027343 44.62038912 120.82590246 47.56945419 117.86128235 C48.69186102 116.72779076 49.80897393 115.58903157 50.92062759 114.44499207 C52.47911986 112.84292797 54.05541218 111.26065425 55.63720703 109.68164062 C56.52989288 108.7756311 57.42257874 107.86962158 58.34231567 106.93615723 C61.52883071 104.61474002 63.14041531 104.42226767 67 105 C69 107 69 107 69.46250916 109.75384521 C68.84349792 114.09842141 66.67488347 116.06306138 63.59985352 118.93847656 C63.02599915 119.49875046 62.45214478 120.05902435 61.86090088 120.63627625 C60.61506123 121.84928228 59.36247152 123.05538545 58.10400581 124.25528717 C56.10986913 126.15879695 54.13656178 128.08178406 52.16770935 130.01141357 C46.56745497 135.49253276 40.93014091 140.93496218 35.28295898 146.36767578 C31.82747688 149.6946586 28.39448597 153.04357894 24.97361565 156.4061203 C23.66855011 157.67957825 22.3548197 158.94422081 21.03228951 160.19953156 C12.56493903 167.67787019 12.56493903 167.67787019 8.68725586 177.85449219 C8.79046143 179.22250977 8.89366699 180.59052734 9 182 C6.03 182 3.06 182 0 182 C0 121.94 0 61.88 0 0 Z " fill="#3F881A" transform="translate(256,151)"/>
<path d="M0 0 C11.22134635 5.4280773 21.15270327 14.97095252 27 26 C27 26.66 27 27.32 27 28 C26.13217896 28.2630896 26.13217896 28.2630896 25.24682617 28.53149414 C4.09279257 34.71008988 4.09279257 34.71008988 -10.66015625 50.25390625 C-14.81547743 58.77049748 -15.52353842 68.02801686 -13.171875 77.24609375 C-12.21079883 79.88905323 -11.15823188 82.43836306 -10 85 C-9.3277416 86.66441908 -8.6594899 88.33048052 -8 90 C-10.4751482 92.50400643 -12.95576894 95.00251906 -15.4375 97.5 C-16.14455078 98.21542969 -16.85160156 98.93085938 -17.58007812 99.66796875 C-18.25361328 100.34472656 -18.92714844 101.02148438 -19.62109375 101.71875 C-20.2442749 102.34716797 -20.86745605 102.97558594 -21.50952148 103.62304688 C-23 105 -23 105 -24 105 C-24 72 -24 39 -24 5 C-20.37 4.01 -16.74 3.02 -13 2 C-11.741875 1.4225 -10.48375 0.845 -9.1875 0.25 C-5.42742822 -1.22453795 -3.87739703 -0.94393561 0 0 Z " fill="#FD9D22" transform="translate(289,203)"/>
<path d="M0 0 C9.90149663 4.3671945 21.69384822 15.47138635 27 25 C29.54477898 33.85745394 28.55013443 43.02373663 27 52 C9.60924094 50.56415507 -5.2615947 41.74257566 -17 29 C-22.46226572 22.01613225 -26.76801276 14.63035067 -29 6 C-28.12859375 6.04640625 -27.2571875 6.0928125 -26.359375 6.140625 C-16.7476349 6.43188985 -8.15416558 5.43611039 0 0 Z " fill="#FC9D22" transform="translate(220,280)"/>
<path d="M0 0 C1.65 0.66 3.3 1.32 5 2 C10.28 3.98 15.56 5.96 21 8 C21 34.73 21 61.46 21 89 C16.49210724 85.13609192 12.20232971 81.33926648 8.0625 77.125 C7.56943359 76.62742187 7.07636719 76.12984375 6.56835938 75.6171875 C5.37654008 74.41379715 4.18791322 73.20724635 3 72 C3.9609068 69.54579208 4.939454 67.12750014 6.0703125 64.74609375 C9.13799975 58.03126722 9.61202064 52.31510389 9 45 C8.92910156 44.14277344 8.85820312 43.28554687 8.78515625 42.40234375 C7.671442 34.50623484 3.86168996 27.39744308 -2.14453125 22.11328125 C-7.06687171 18.69091844 -12.45031334 16.23037052 -18 14 C-15.20005533 10.15421312 -12.49848089 7.77118911 -8.4375 5.3125 C-7.01244141 4.44044922 -7.01244141 4.44044922 -5.55859375 3.55078125 C-4.71425781 3.03902344 -3.86992187 2.52726563 -3 2 C-2.01 1.34 -1.02 0.68 0 0 Z " fill="#FC9E22" transform="translate(226,201)"/>
<path d="M0 0 C2.80387058 1.27886769 4.85248535 2.60381048 7.02459717 4.78408813 C7.59384415 5.35058578 8.16309113 5.91708344 8.74958801 6.50074768 C9.36170639 7.12005661 9.97382477 7.73936554 10.60449219 8.37744141 C11.25856552 9.03122269 11.91263885 9.68500397 12.58653259 10.3585968 C14.74475514 12.51821138 16.89580936 14.6848212 19.046875 16.8515625 C20.54287809 18.35129616 22.03932369 19.85058853 23.53619385 21.34945679 C27.47300225 25.29389812 31.40376734 29.24430894 35.33331299 33.19598389 C39.34488498 37.22802153 43.36213094 41.25439714 47.37890625 45.28125 C55.25817445 53.18196213 63.13107125 61.0889909 71 69 C69.65272739 71.79570164 68.40293767 73.83967803 66.1796875 76.015625 C65.37724609 76.80839844 65.37724609 76.80839844 64.55859375 77.6171875 C64.00300781 78.15601563 63.44742188 78.69484375 62.875 79.25 C62.31167969 79.80429688 61.74835938 80.35859375 61.16796875 80.9296875 C59.78313972 82.29104485 58.39216796 83.64614859 57 85 C53.11550706 83.95594656 50.12931887 82.5487665 47 80 C45.07594266 76.23224037 43.83561467 72.44034716 42.52734375 68.4296875 C35.83529034 48.10896717 21.48774188 29.15219654 8.578125 12.38671875 C5.50860845 8.39567704 2.69363479 4.25310757 0 0 Z " fill="#FD9E21" transform="translate(262,66)"/>
<path d="M0 0 C3.18142452 1.25987568 6.28427638 2.59524312 9.375 4.0625 C13.31442975 5.83755294 16.7073741 6.63467014 21 7 C17.01988682 16.47951688 5.8328333 22.69539136 -3 27 C-9.57135159 29.68235071 -15.92341144 31.45564703 -23 32 C-23.69775468 28.36333293 -23.91761122 26.52644477 -23 23 C-19.64060167 18.4835263 -15.61072126 14.76213809 -11.5 10.9375 C-10.38988192 9.87257056 -9.28178472 8.80553024 -8.17578125 7.73632812 C-5.47327796 5.13255903 -2.74479324 2.55911978 0 0 Z " fill="#F99C22" transform="translate(288,300)"/>
<path d="M0 0 C9.24 0 18.48 0 28 0 C31.8125 9.625 31.8125 9.625 32.99536133 12.62353516 C34.47636899 16.34353766 35.97181403 19.9450343 37.80078125 23.51171875 C39 26 39 26 38.375 28.1875 C37.02972964 29.96081093 35.64638032 31.50329061 34 33 C31.10221359 31.68809387 29.03448517 30.2835028 26.79199219 28.03491211 C26.19167175 27.4376683 25.59135132 26.8404245 24.97283936 26.2250824 C24.33727112 25.58232864 23.70170288 24.93957489 23.046875 24.27734375 C22.38665344 23.61666397 21.72643188 22.95598419 21.04620361 22.27528381 C19.65538059 20.88144496 18.26698355 19.4851817 16.88085938 18.08666992 C14.74924078 15.93673425 12.60966748 13.79496884 10.46875 11.65429688 C9.11931755 10.2999514 7.77034301 8.94514948 6.421875 7.58984375 C5.77820984 6.94506577 5.13454468 6.30028778 4.47137451 5.63597107 C0 1.11605796 0 1.11605796 0 0 Z " fill="#F99B23" transform="translate(104,299)"/>
</svg>
